<svg width="238" height="46" viewBox="0 0 238 46" fill="none" xmlns="http://www.w3.org/2000/svg">
<rect width="238" height="46" rx="2" fill="black"/>
<path d="M109.696 20.3636H110.889C110.834 18.8274 109.417 17.679 107.449 17.679C105.5 17.679 103.968 18.8125 103.968 20.5227C103.968 21.8949 104.963 22.7102 106.554 23.1676L107.806 23.5256C108.88 23.8239 109.835 24.2017 109.835 25.2159C109.835 26.3295 108.761 27.0653 107.349 27.0653C106.136 27.0653 105.062 26.5284 104.963 25.375H103.69C103.809 27.0455 105.162 28.179 107.349 28.179C109.696 28.179 111.028 26.8864 111.028 25.2358C111.028 23.3267 109.218 22.7102 108.164 22.4318L107.13 22.1534C106.375 21.9545 105.162 21.5568 105.162 20.4631C105.162 19.4886 106.056 18.7727 107.409 18.7727C108.642 18.7727 109.576 19.3594 109.696 20.3636ZM115.143 28.179C116.476 28.179 117.172 27.4631 117.41 26.9659H117.47V28H118.643V22.9688C118.643 20.5426 116.794 20.2642 115.819 20.2642C114.666 20.2642 113.354 20.6619 112.757 22.054L113.871 22.4517C114.129 21.8949 114.741 21.2983 115.859 21.2983C116.938 21.2983 117.47 21.87 117.47 22.8494V22.8892C117.47 23.456 116.893 23.4062 115.501 23.5852C114.084 23.7692 112.538 24.0824 112.538 25.8324C112.538 27.3239 113.692 28.179 115.143 28.179ZM115.322 27.125C114.388 27.125 113.711 26.7074 113.711 25.892C113.711 24.9972 114.527 24.7188 115.442 24.5994C115.939 24.5398 117.271 24.4006 117.47 24.1619V25.2358C117.47 26.1903 116.714 27.125 115.322 27.125ZM126.756 20.3636H125.483L123.375 26.4489H123.295L121.188 20.3636H119.915L122.739 28H123.932L126.756 20.3636ZM131.233 28.1591C132.784 28.1591 133.917 27.3835 134.275 26.2301L133.142 25.9119C132.843 26.7074 132.152 27.1051 131.233 27.1051C129.855 27.1051 128.906 26.2152 128.851 24.5795H134.395V24.0824C134.395 21.2386 132.704 20.2642 131.113 20.2642C129.045 20.2642 127.673 21.8949 127.673 24.2415C127.673 26.5881 129.025 28.1591 131.233 28.1591ZM128.851 23.5653C128.931 22.3771 129.771 21.3182 131.113 21.3182C132.386 21.3182 133.201 22.2727 133.201 23.5653H128.851Z" fill="white"/>
</svg>
